<?xml version="1.0" encoding="utf-8"?>
<!-- Generator: Adobe Illustrator 27.0.1, SVG Export Plug-In . SVG Version: 6.00 Build 0)  -->
<svg version="1.1" id="Layer_1" xmlns="http://www.w3.org/2000/svg" xmlns:xlink="http://www.w3.org/1999/xlink" x="0px" y="0px"
	 viewBox="0 0 24 24" style="enable-background:new 0 0 24 24;" xml:space="preserve">
<style type="text/css">
	.st0{fill:none;}
</style>
<path class="st0" d="M0,0h24v24H0V0z"/>
<path d="M13,19.9c4.4-0.6,7.5-4.6,6.9-8.9C19.4,7,16,4,12,4c-4.4,0-8,3.6-8,8c0,4,3,7.4,7,7.9V14H9v-2h2v-1.7C11,9,11.1,8.5,11.4,8
	c0.3-0.5,0.7-0.9,1.1-1.1c0.4-0.2,0.9-0.3,1.7-0.4c0.3,0,0.8,0,1.3,0.1v1.9H15c-0.9,0-1.3,0-1.5,0.2c-0.1,0.1-0.2,0.2-0.3,0.3
	C13,9.2,13,9.4,13,10.3V12h2.5L15,14h-2V19.9z M12,22C6.5,22,2,17.5,2,12S6.5,2,12,2s10,4.5,10,10S17.5,22,12,22z"/>
</svg>
