<?xml version="1.0" encoding="utf-8"?>
<!-- Generator: Adobe Illustrator 27.0.1, SVG Export Plug-In . SVG Version: 6.00 Build 0)  -->
<svg version="1.1" id="Layer_1" xmlns="http://www.w3.org/2000/svg" xmlns:xlink="http://www.w3.org/1999/xlink" x="0px" y="0px"
	 viewBox="0 0 24 24" style="enable-background:new 0 0 24 24;" xml:space="preserve">
<style type="text/css">
	.st0{fill:none;}
	.st1{fill:#FFFFFF;}
</style>
<path class="st0" d="M0,0h24v24H0V0z"/>
<path class="st1" d="M12,21.6c-5.3,0-9.6-4.3-9.6-9.6c0-5.3,4.3-9.6,9.6-9.6c5.3,0,9.6,4.3,9.6,9.6C21.6,17.3,17.3,21.6,12,21.6z
	 M9.6,13c0.2,2.7,0.9,4.9,2.1,7l0.3,0.6l0.3-0.6c1.2-2,1.8-4.3,2.1-7l0-0.4H9.6L9.6,13z M3.6,13.1c0.5,3.3,2.9,6.1,6,7l0.9,0.3
	l-0.4-0.8c-1-2.1-1.6-4.3-1.7-6.5l0-0.4H3.5L3.6,13.1z M15.5,13c-0.1,2.2-0.7,4.5-1.7,6.5l-0.4,0.8l0.9-0.2c3.2-0.9,5.6-3.7,6-7
	l0.1-0.5h-4.8L15.5,13z M13.9,4.5c1,2.1,1.6,4.3,1.7,6.5l0,0.4h4.9l-0.1-0.5c-0.5-3.3-2.9-6.1-6-7l-0.9-0.3L13.9,4.5z M11.7,4
	c-1.2,2-1.8,4.3-2.1,7l0,0.4h4.9l0-0.4c-0.1-2.4-0.8-4.8-2.1-7L12,3.4L11.7,4z M9.7,3.9c-3.2,0.9-5.6,3.7-6,7l-0.1,0.5h4.8l0-0.4
	c0.1-2.2,0.7-4.5,1.7-6.5l0.4-0.8L9.7,3.9z"/>
</svg>
