<?xml version="1.0" encoding="utf-8"?>
<!-- Generator: Adobe Illustrator 27.0.1, SVG Export Plug-In . SVG Version: 6.00 Build 0)  -->
<svg version="1.1" id="Layer_1" xmlns="http://www.w3.org/2000/svg" xmlns:xlink="http://www.w3.org/1999/xlink" x="0px" y="0px"
	 viewBox="0 0 24 24" style="enable-background:new 0 0 24 24;" xml:space="preserve">
<style type="text/css">
	.st0{fill:none;}
</style>
<path class="st0" d="M0,0h24v24H0V0z"/>
<path d="M12,21.6c-5.3,0-9.6-4.3-9.6-9.6S6.7,2.4,12,2.4s9.6,4.3,9.6,9.6S17.3,21.6,12,21.6z M9.6,13c0.2,2.7,0.9,4.9,2.1,7l0.3,0.6
	l0.3-0.6c1.2-2,1.8-4.3,2.1-7v-0.4H9.6V13z M3.6,13.1c0.5,3.3,2.9,6.1,6,7l0.9,0.3l-0.4-0.8c-1-2.1-1.6-4.3-1.7-6.5v-0.4H3.5
	L3.6,13.1z M15.5,13c-0.1,2.2-0.7,4.5-1.7,6.5l-0.4,0.8l0.9-0.2c3.2-0.9,5.6-3.7,6-7l0.1-0.5h-4.8L15.5,13z M13.9,4.5
	c1,2.1,1.6,4.3,1.7,6.5v0.4h4.9l-0.1-0.5c-0.5-3.3-2.9-6.1-6-7l-0.9-0.3L13.9,4.5z M11.7,4c-1.2,2-1.8,4.3-2.1,7v0.4h4.9V11
	c-0.1-2.4-0.8-4.8-2.1-7L12,3.4L11.7,4z M9.7,3.9c-3.2,0.9-5.6,3.7-6,7l-0.1,0.5h4.8V11c0.1-2.2,0.7-4.5,1.7-6.5l0.4-0.8L9.7,3.9z"
	/>
</svg>
