<?xml version="1.0" encoding="utf-8"?>
<!-- Generator: Adobe Illustrator 27.0.1, SVG Export Plug-In . SVG Version: 6.00 Build 0)  -->
<svg version="1.1" id="Layer_1" xmlns="http://www.w3.org/2000/svg" xmlns:xlink="http://www.w3.org/1999/xlink" x="0px" y="0px"
	 viewBox="0 0 24 24" style="enable-background:new 0 0 24 24;" xml:space="preserve">
<style type="text/css">
	.st0{fill:none;}
</style>
<path class="st0" d="M0,0h24v24H0V0z"/>
<path d="M22,10.7c0,1.8-0.7,3.4-2.1,5c-2.1,2.4-6.8,5.4-7.9,5.8c-1.1,0.5-0.9-0.3-0.9-0.5l0.1-0.9c0-0.3,0.1-0.6,0-0.9
	s-0.6-0.4-0.9-0.5c-4.8-0.6-8.4-4-8.4-8c0-4.5,4.5-8.1,10-8.1C17.5,2.6,22,6.2,22,10.7z M18.4,14.3c1.1-1.2,1.6-2.4,1.6-3.6
	c0-3.3-3.5-6.1-8-6.1s-8,2.8-8,6.1c0,2.9,2.7,5.5,6.6,6h0.1c1.1,0.2,1.9,0.6,2.3,1.7v0.1C14.9,17.4,17.3,15.6,18.4,14.3L18.4,14.3z
	 M18.1,10.3c0.3,0,0.5,0.3,0.5,0.6s-0.2,0.5-0.5,0.5h-1.5v0.9h1.5c0.3,0,0.5,0.2,0.5,0.5s-0.2,0.5-0.5,0.5l0,0h-2
	c-0.3,0-0.5-0.2-0.5-0.5v-4c0-0.3,0.2-0.5,0.5-0.5h2c0.3,0,0.5,0.2,0.5,0.5s-0.2,0.5-0.5,0.5h-1.5v0.9
	C16.7,10.3,18.1,10.3,18.1,10.3z M14.9,12.8c0,0.3-0.2,0.5-0.5,0.5l0,0c-0.2,0-0.3-0.1-0.4-0.2l-2-2.8v2.4c0,0.3-0.3,0.5-0.6,0.5
	s-0.5-0.2-0.5-0.5v-4c0-0.3,0.2-0.5,0.5-0.5c0.2,0,0.3,0.1,0.4,0.2l2.1,2.8V8.9c0-0.3,0.2-0.5,0.5-0.5s0.5,0.2,0.5,0.5V12.8z
	 M10.1,12.8c0,0.3-0.2,0.5-0.5,0.5s-0.5-0.2-0.5-0.5v-4c0-0.3,0.2-0.5,0.5-0.5s0.5,0.2,0.5,0.5C10.1,8.9,10.1,12.8,10.1,12.8z
	 M8.1,13.4h-2c-0.3,0-0.5-0.2-0.5-0.5v-4c0-0.3,0.3-0.5,0.6-0.5c0.3,0,0.5,0.2,0.5,0.5v3.4h1.5c0.3,0,0.5,0.2,0.5,0.5
	C8.6,13.1,8.4,13.4,8.1,13.4z"/>
</svg>
