<?xml version="1.0" encoding="utf-8"?>
<!-- Generator: Adobe Illustrator 27.0.1, SVG Export Plug-In . SVG Version: 6.00 Build 0)  -->
<svg version="1.1" id="Layer_1" xmlns="http://www.w3.org/2000/svg" xmlns:xlink="http://www.w3.org/1999/xlink" x="0px" y="0px"
	 viewBox="0 0 24 24" style="enable-background:new 0 0 24 24;" xml:space="preserve">
<style type="text/css">
	.st0{fill:none;}
</style>
<path class="st0" d="M0,0h24v24H0V0z"/>
<path d="M8.5,19.2c0-0.3,0.1-0.7,0.1-1c0.1-0.3,0.3-1.1,0.5-2.3l0,0l0.4-1.7c0.1-0.3,0.1-0.6,0.2-0.7c-0.2-0.5-0.2-1-0.2-1.5
	c0-1.3,0.8-2.4,1.7-2.4c0.4,0,0.7,0.1,0.9,0.4c0.2,0.3,0.3,0.6,0.3,1c0,0.5-0.1,0.8-0.5,2c-0.1,0.2-0.1,0.4-0.2,0.6
	c-0.1,0.2-0.1,0.4-0.1,0.5c-0.1,0.4,0,0.8,0.2,1.1s0.6,0.5,1,0.5c1.5,0,2.6-2,2.6-4.5c0-2-1.3-3.3-3.4-3.3c-1,0-2,0.4-2.8,1.2
	C8.4,9.9,8,11,8,12.1c0,0.6,0.2,1.2,0.5,1.6c0.2,0.1,0.2,0.4,0.2,0.6c0,0.2-0.1,0.6-0.2,0.7c0,0.1-0.1,0.2-0.2,0.3
	c-0.1,0.1-0.2,0.1-0.4,0c-1.2-0.5-1.8-1.8-1.8-3.4c0-3,2.5-5.6,6.2-5.6c3.1,0,5.5,2.3,5.5,5.1c0,3.5-1.9,6.1-4.7,6.1
	c-0.8,0-1.6-0.3-2-1v0.2l-0.2,0.9l0,0c-0.1,0.6-0.2,1-0.3,1.2c-0.1,0.4-0.2,0.7-0.4,1c4.3,1,8.6-1.6,9.6-5.9s-1.6-8.6-5.9-9.6
	s-8.6,1.6-9.6,5.9C3.3,13.8,5.1,17.5,8.5,19.2L8.5,19.2z M12,22C6.5,22,2,17.5,2,12S6.5,2,12,2s10,4.5,10,10S17.5,22,12,22z"/>
</svg>
