<?xml version="1.0" encoding="utf-8"?>
<!-- Generator: Adobe Illustrator 27.0.1, SVG Export Plug-In . SVG Version: 6.00 Build 0)  -->
<svg version="1.1" id="Layer_1" xmlns="http://www.w3.org/2000/svg" xmlns:xlink="http://www.w3.org/1999/xlink" x="0px" y="0px"
	 viewBox="0 0 24 24" style="enable-background:new 0 0 24 24;" xml:space="preserve">
<style type="text/css">
	.st0{fill:none;}
</style>
<path class="st0" d="M0,0h24v24H0V0z"/>
<path d="M15.3,5.6c-1.6,0-2.9,1.3-2.9,2.8V10c0,0.3-0.3,0.6-0.6,0.6c0,0,0,0-0.1,0l-1.6-0.2c-2.1-0.3-4-1.2-5.9-2.8
	c-0.6,3.3,0.6,5.6,3.4,7.4l1.8,1c0.3,0.2,0.4,0.5,0.2,0.8c0,0.1-0.1,0.1-0.2,0.2l-1.6,1.2c0.9,0.1,1.8,0,2.6-0.1
	c4.7-0.9,7.9-4.5,7.9-10.3C18.2,7.2,17.2,5.6,15.3,5.6z M10.4,8.4c0-2.7,2.3-4.9,5-4.8c1.3,0,2.5,0.5,3.4,1.5c0.7,0,1.3,0.2,2.7-0.6
	C21.1,6,21,6.7,20.2,7.7c0,7.6-4.7,11.4-9.5,12.3c-3.3,0.7-8-0.4-9.4-1.8c0.7-0.1,3.5-0.4,5.1-1.5C5,15.8-0.5,12.6,3.1,3.9
	c1.7,2,3.4,3.3,5.2,4C9.6,8.3,9.9,8.3,10.4,8.4L10.4,8.4z"/>
</svg>
