<?xml version="1.0" encoding="utf-8"?>
<!-- Generator: Adobe Illustrator 27.0.1, SVG Export Plug-In . SVG Version: 6.00 Build 0)  -->
<svg version="1.1" id="Layer_1" xmlns="http://www.w3.org/2000/svg" xmlns:xlink="http://www.w3.org/1999/xlink" x="0px" y="0px"
	 viewBox="0 0 24 24" style="enable-background:new 0 0 24 24;" xml:space="preserve">
<path d="M18.4,21.6c-0.2-3.3-3-6-6.4-6s-6.2,2.7-6.4,6H4.4c0.2-4,3.5-7.2,7.6-7.2s7.4,3.2,7.6,7.2H18.4z"/>
<path d="M12,1.8c-3.1,0-5.6,2.5-5.6,5.6S8.9,13,12,13s5.6-2.5,5.6-5.6S15.1,1.8,12,1.8z M12,11.8c-2.4,0-4.4-2-4.4-4.4S9.6,3,12,3
	s4.4,2,4.4,4.4S14.4,11.8,12,11.8z"/>
</svg>
