<?xml version="1.0" encoding="utf-8"?>
<!-- Generator: Adobe Illustrator 27.0.1, SVG Export Plug-In . SVG Version: 6.00 Build 0)  -->
<svg version="1.1" id="Layer_1" xmlns="http://www.w3.org/2000/svg" xmlns:xlink="http://www.w3.org/1999/xlink" x="0px" y="0px"
	 viewBox="0 0 24 24" style="enable-background:new 0 0 24 24;" xml:space="preserve">
<style type="text/css">
	.st0{fill:none;}
	.st1{fill:#FFFFFF;}
</style>
<path class="st0" d="M0,0h24v24H0V0z"/>
<path class="st1" d="M8.7,11.5c-0.7,0-1.3-0.6-1.3-1.3c0,0,0,0,0,0c0-0.7,0.6-1.3,1.3-1.3c0.7,0,1.3,0.6,1.3,1.3
	C10,10.9,9.4,11.5,8.7,11.5z M15.3,11.5c-0.7,0-1.3-0.6-1.3-1.3c0,0,0,0,0,0c0-0.7,0.6-1.3,1.3-1.3c0.7,0,1.3,0.6,1.3,1.3
	C16.6,10.9,16.1,11.5,15.3,11.5z M6.8,19.2l0.7-0.4c0.8-0.5,1.8-0.7,2.7-0.5c0.2,0,0.4,0.1,0.5,0.1c0.4,0.1,0.8,0.1,1.2,0.1
	c4.4,0,7.9-3,7.9-6.6S16.4,5.2,12,5.2s-7.9,3-7.9,6.6c0,1.4,0.5,2.7,1.4,3.8c0,0.1,0.1,0.1,0.2,0.2c0.8,0.8,1.2,2,1.1,3.1L6.8,19.2
	L6.8,19.2z M6.2,21.9c-0.5,0.3-1.1,0.2-1.4-0.3c-0.1-0.2-0.2-0.4-0.1-0.6l0.2-2.3c0-0.6-0.2-1.1-0.6-1.6C4.2,17.1,4.1,17,4,16.9
	c-1.2-1.4-1.9-3.2-1.9-5.1c0-4.8,4.4-8.6,9.9-8.6s9.9,3.8,9.9,8.6s-4.4,8.6-9.9,8.6c-0.5,0-1,0-1.5-0.1c-0.2,0-0.4-0.1-0.6-0.1
	c-0.5-0.1-0.9,0-1.4,0.3L6.2,21.9L6.2,21.9z"/>
</svg>
