<?xml version="1.0" encoding="utf-8"?>
<!-- Generator: Adobe Illustrator 27.0.1, SVG Export Plug-In . SVG Version: 6.00 Build 0)  -->
<svg version="1.1" id="Layer_1" xmlns="http://www.w3.org/2000/svg" xmlns:xlink="http://www.w3.org/1999/xlink" x="0px" y="0px"
	 viewBox="0 0 24 24" style="enable-background:new 0 0 24 24;" xml:space="preserve">
<style type="text/css">
	.st0{fill:none;}
</style>
<path class="st0" d="M0,0h24v24H0V0z"/>
<path d="M19.6,7c-0.1-0.3-0.3-0.5-0.5-0.6C18.6,6.3,16.5,6,12,6S5.4,6.3,4.9,6.4C4.7,6.5,4.5,6.7,4.4,7C4.3,7.4,4,9.2,4,12
	s0.3,4.6,0.4,5c0.1,0.3,0.3,0.5,0.5,0.6C5.4,17.7,7.5,18,12,18s6.6-0.3,7.1-0.4c0.2-0.1,0.5-0.3,0.5-0.6c0.1-0.4,0.4-2.2,0.4-5
	S19.7,7.4,19.6,7z M21.5,6.5C22,8.3,22,12,22,12s0,3.7-0.5,5.5c-0.3,1-1,1.8-1.9,2C17.9,20,12,20,12,20s-5.9,0-7.6-0.5
	c-0.9-0.3-1.7-1-1.9-2C2,15.7,2,12,2,12s0-3.7,0.5-5.5c0.3-1,1-1.8,1.9-2C6.1,4,12,4,12,4s5.9,0,7.6,0.5C20.5,4.7,21.3,5.5,21.5,6.5
	z M10,15.5v-7l6,3.5L10,15.5z"/>
</svg>
